<?xml version="1.0" encoding="iso-8859-1"?>
<!-- Generator: Adobe Illustrator 19.0.0, SVG Export Plug-In . SVG Version: 6.00 Build 0)  -->
<svg version="1.1" id="Layer_1" xmlns="http://www.w3.org/2000/svg" xmlns:xlink="http://www.w3.org/1999/xlink" x="0px" y="0px"
	 viewBox="0 0 512.001 512.001" style="enable-background:new 0 0 512.001 512.001;" xml:space="preserve">
<g>
	<g>
		<path d="M51.171,168.415C22.954,168.415,0,191.369,0,219.586c0,28.217,22.954,51.171,51.171,51.171
			c28.217,0,51.171-22.954,51.171-51.171C102.342,191.369,79.388,168.415,51.171,168.415z"/>
	</g>
</g>
<g>
	<g>
		<path d="M334.607,263.944c-35.767,0-65.676,25.54-72.464,59.338c-0.39,3.29-0.608,6.632-0.608,10.027
			c0,24.815,10.657,47.178,27.627,62.777c12.546,9.815,28.318,15.686,45.446,15.686c40.756,0,73.914-33.158,73.914-73.914
			S375.363,263.944,334.607,263.944z"/>
	</g>
</g>
<g>
	<g>
		<path d="M445.225,123.523l-26.341,79.016h-248.32c-15.424,0-29.345,10.872-33.097,25.836l-34.114,136.45
			c-4.553,18.262,6.568,36.824,24.819,41.383c18.185,4.583,36.783-6.479,41.377-24.819l27.662-110.734l52.88,0.003
			c19.809-24.861,50.332-40.827,84.517-40.827c34.19,0,64.718,15.97,84.527,40.838l24.344,0.001c14.48,0,27.785-9.48,32.365-23.223
			L509.958,145.1C524.238,102.39,459.509,80.619,445.225,123.523z"/>
	</g>
</g>
<g>
</g>
<g>
</g>
<g>
</g>
<g>
</g>
<g>
</g>
<g>
</g>
<g>
</g>
<g>
</g>
<g>
</g>
<g>
</g>
<g>
</g>
<g>
</g>
<g>
</g>
<g>
</g>
<g>
</g>
</svg>
